<svg width="43" height="43" xmlns="http://www.w3.org/2000/svg" xmlns:xlink="http://www.w3.org/1999/xlink" xml:space="preserve" overflow="hidden"><defs><clipPath id="clip0"><rect x="147" y="122" width="43" height="43"/></clipPath></defs><g clip-path="url(#clip0)" transform="translate(-147 -122)"><path d="M168.097 158.326 174.502 151.921 183.595 159.311C183.774 159.491 184.087 159.446 184.267 159.267 184.446 159.087 184.446 158.819 184.311 158.595L176.921 149.547 183.326 143.142C183.819 142.649 183.953 141.932 183.729 141.26 183.505 140.589 182.878 140.141 182.206 140.096 180.415 139.917 178.22 140.499 175.98 141.708L166.484 134.094C167.291 132.526 167.649 130.779 167.515 129.032 167.335 127.778 165.768 127.106 164.917 127.957L152.957 139.917C152.106 140.768 152.778 142.335 154.032 142.515 155.779 142.649 157.526 142.335 159.094 141.484L166.708 150.98C165.499 153.22 164.961 155.415 165.096 157.206 165.141 157.878 165.589 158.505 166.26 158.729 166.887 158.998 167.604 158.819 168.097 158.326Z" fill="#002060"/></g></svg>