<svg width="30" height="30" xmlns="http://www.w3.org/2000/svg" xmlns:xlink="http://www.w3.org/1999/xlink" xml:space="preserve" overflow="hidden"><defs><clipPath id="clip0"><rect x="79" y="505" width="30" height="30"/></clipPath></defs><g clip-path="url(#clip0)" transform="translate(-79 -505)"><path d="M88.0625 513.125C88.5938 513.125 89 512.719 89 512.188L89 510.312C89 509.781 88.5938 509.375 88.0625 509.375 87.5312 509.375 87.125 509.781 87.125 510.312L87.125 512.188C87.125 512.719 87.5312 513.125 88.0625 513.125Z"/><path d="M85.25 526.25 90.25 526.25 90.25 528.75 85.25 528.75 85.25 526.25ZM85.25 522.5 90.25 522.5 90.25 525 85.25 525 85.25 522.5ZM85.25 518.75 90.25 518.75 90.25 521.25 85.25 521.25 85.25 518.75ZM96.5 518.75 96.5 521.25 91.5 521.25 91.5 518.75 96.5 518.75ZM102.75 518.75 102.75 521.25 97.75 521.25 97.75 518.75 102.75 518.75ZM102.75 525 97.75 525 97.75 522.5 102.75 522.5 102.75 525ZM102.75 528.75 97.75 528.75 97.75 526.25 102.75 526.25 102.75 528.75ZM91.5 525 91.5 522.5 96.5 522.5 96.5 525 91.5 525ZM91.5 528.75 91.5 526.25 96.5 526.25 96.5 528.75 91.5 528.75ZM83.375 530.625 104.625 530.625 104.625 516.875 83.375 516.875 83.375 530.625Z"/><path d="M99.9375 513.125C100.469 513.125 100.875 512.719 100.875 512.188L100.875 510.312C100.875 509.781 100.469 509.375 99.9375 509.375 99.4062 509.375 99 509.781 99 510.312L99 512.188C99 512.719 99.4062 513.125 99.9375 513.125Z"/><path d="M102.125 511.25 102.125 512.188C102.125 513.406 101.156 514.375 99.9375 514.375 98.7188 514.375 97.75 513.406 97.75 512.188L97.75 511.25 90.25 511.25 90.25 512.188C90.25 513.406 89.2812 514.375 88.0625 514.375 86.8438 514.375 85.875 513.406 85.875 512.188L85.875 511.25 83.375 511.25 83.375 515.625 104.625 515.625 104.625 511.25 102.125 511.25Z"/></g></svg>